# xmcd CD database file
#
# Track frame offsets:
#	150
#	17266
#	29574
#	43298
#	57991
#	72976
#	85689
#	98635
#	112953
#	126385
#	139035
#	149484
#	161698
#	175831
#	192831
#	201636
#	217777
#
# Disc length: 3131 seconds
#
# Revision: 0
# Processed by: cddbd v1.4PL0 Copyright (c) Steve Scherf et al.
# Submitted via: CDex 1.50beta10
#
DISCID=f60c3911
DTITLE=Cajun Cousins - Authentic Cajun Music from Southwest Louisiana
DYEAR=2001
DGENRE=Jazz
TTITLE0=The Gravel Road
TTITLE1=Give Me Another Shot of Whiskey
TTITLE2=Blacktop the Gravel Road
TTITLE3=Another Hot Potato
TTITLE4=After Loving You
TTITLE5=Falcon Stomp
TTITLE6=Going Out Two-Stepping Tonight
TTITLE7=Cajun from Church Point
TTITLE8=Don't Put All Your Eggs in One Bucket
TTITLE9=I'll Never Smell the Roses Again
TTITLE10=Callier Special
TTITLE11=La Valse de K.L.F.Y.
TTITLE12=Cajun Cousin Special
TTITLE13=The Old Man
TTITLE14=Dancing Little Man
TTITLE15=Dans le Chagrin
TTITLE16=Little Short Pants
EXTD=YEAR: 2001
EXTT0=
EXTT1=
EXTT2=
EXTT3=
EXTT4=
EXTT5=
EXTT6=
EXTT7=
EXTT8=
EXTT9=
EXTT10=
EXTT11=
EXTT12=
EXTT13=
EXTT14=
EXTT15=
EXTT16=
PLAYORDER=
